<svg xmlns="http://www.w3.org/2000/svg" viewBox="230 240 1530 560">
  <g>
    <g fill="#03e398" fill-opacity="0.4">
      <g transform="translate(278.435266, 787.750231)">
        <g>
          <path d="M 256.328125 -504.6875 L 256.328125 -142.53125 C 256.328125 -93.1875 242.765625 -55.566406 215.640625 -29.671875 C 188.515625 -3.773438 149.671875 9.171875 99.109375 9.171875 C 85.648438 9.171875 72.394531 7.539062 59.34375 4.28125 C 46.289062 1.019531 35.273438 -2.953125 26.296875 -7.640625 C 17.328125 -12.335938 9.273438 -17.128906 2.140625 -22.015625 C -4.992188 -26.910156 -10.191406 -30.992188 -13.453125 -34.265625 L -18.96875 -39.15625 L 17.734375 -135.203125 C 41.796875 -112.359375 63.617188 -100.9375 83.203125 -100.9375 C 100.734375 -100.9375 114.800781 -106.75 125.40625 -118.375 C 136.007812 -130 141.3125 -147.84375 141.3125 -171.90625 L 141.3125 -504.6875 Z M 256.328125 -504.6875 "/>
        </g>
      </g>
    </g>
    <g fill="#03e398" fill-opacity="1">
      <g transform="translate(251.399576, 760.714527)">
        <g>
          <path d="M 256.328125 -504.6875 L 256.328125 -142.53125 C 256.328125 -93.1875 242.765625 -55.566406 215.640625 -29.671875 C 188.515625 -3.773438 149.671875 9.171875 99.109375 9.171875 C 85.648438 9.171875 72.394531 7.539062 59.34375 4.28125 C 46.289062 1.019531 35.273438 -2.953125 26.296875 -7.640625 C 17.328125 -12.335938 9.273438 -17.128906 2.140625 -22.015625 C -4.992188 -26.910156 -10.191406 -30.992188 -13.453125 -34.265625 L -18.96875 -39.15625 L 17.734375 -135.203125 C 41.796875 -112.359375 63.617188 -100.9375 83.203125 -100.9375 C 100.734375 -100.9375 114.800781 -106.75 125.40625 -118.375 C 136.007812 -130 141.3125 -147.84375 141.3125 -171.90625 L 141.3125 -504.6875 Z M 256.328125 -504.6875 "/>
        </g>
      </g>
    </g>
    <g fill="#03e398" fill-opacity="0.4">
      <g transform="translate(508.255023, 787.895484)">
        <g>
          <path d="M 36.703125 -504.65625 L 220.828125 -504.65625 C 272.210938 -504.65625 313.804688 -491.398438 345.609375 -464.890625 C 377.421875 -438.390625 393.328125 -399.851562 393.328125 -349.28125 C 393.328125 -298.71875 377.21875 -259.0625 345 -230.3125 C 312.78125 -201.5625 271.390625 -187.1875 220.828125 -187.1875 L 151.703125 -187.1875 L 151.703125 0 L 36.703125 0 Z M 151.703125 -278.9375 L 184.125 -278.9375 C 209.8125 -278.9375 230.910156 -284.132812 247.421875 -294.53125 C 263.941406 -304.9375 272.203125 -321.960938 272.203125 -345.609375 C 272.203125 -369.671875 263.941406 -386.898438 247.421875 -397.296875 C 230.910156 -407.703125 209.8125 -412.90625 184.125 -412.90625 L 151.703125 -412.90625 Z M 151.703125 -278.9375 "/>
        </g>
      </g>
    </g>
    <g fill="#03e398" fill-opacity="1">
      <g transform="translate(481.22078, 760.861215)">
        <g>
          <path d="M 36.703125 -504.65625 L 220.828125 -504.65625 C 272.210938 -504.65625 313.804688 -491.398438 345.609375 -464.890625 C 377.421875 -438.390625 393.328125 -399.851562 393.328125 -349.28125 C 393.328125 -298.71875 377.21875 -259.0625 345 -230.3125 C 312.78125 -201.5625 271.390625 -187.1875 220.828125 -187.1875 L 151.703125 -187.1875 L 151.703125 0 L 36.703125 0 Z M 151.703125 -278.9375 L 184.125 -278.9375 C 209.8125 -278.9375 230.910156 -284.132812 247.421875 -294.53125 C 263.941406 -304.9375 272.203125 -321.960938 272.203125 -345.609375 C 272.203125 -369.671875 263.941406 -386.898438 247.421875 -397.296875 C 230.910156 -407.703125 209.8125 -412.90625 184.125 -412.90625 L 151.703125 -412.90625 Z M 151.703125 -278.9375 "/>
        </g>
      </g>
    </g>
    <g fill="#03e398" fill-opacity="0.4">
      <g transform="translate(884.277145, 787.900126)">
        <g>
          <path d="M 305.265625 -104 C 322.796875 -104 339.820312 -106.648438 356.34375 -111.953125 C 372.863281 -117.253906 385 -122.351562 392.75 -127.25 L 404.359375 -135.203125 L 453.3125 -37.3125 C 451.675781 -36.09375 449.429688 -34.460938 446.578125 -32.421875 C 443.722656 -30.378906 437.09375 -26.601562 426.6875 -21.09375 C 416.289062 -15.59375 405.175781 -10.800781 393.34375 -6.71875 C 381.519531 -2.644531 366.023438 1.019531 346.859375 4.28125 C 327.691406 7.539062 307.910156 9.171875 287.515625 9.171875 C 240.617188 9.171875 196.164062 -2.347656 154.15625 -25.390625 C 112.15625 -48.429688 78.304688 -80.140625 52.609375 -120.515625 C 26.910156 -160.890625 14.0625 -204.523438 14.0625 -251.421875 C 14.0625 -286.910156 21.609375 -320.96875 36.703125 -353.59375 C 51.796875 -386.21875 71.878906 -414.148438 96.953125 -437.390625 C 122.035156 -460.640625 151.296875 -479.195312 184.734375 -493.0625 C 218.179688 -506.9375 252.441406 -513.875 287.515625 -513.875 C 320.148438 -513.875 350.226562 -510 377.75 -502.25 C 405.28125 -494.5 424.753906 -486.75 436.171875 -479 L 453.3125 -467.375 L 404.359375 -369.5 C 401.503906 -371.945312 397.222656 -374.898438 391.515625 -378.359375 C 385.804688 -381.828125 374.382812 -386.414062 357.25 -392.125 C 340.125 -397.84375 322.796875 -400.703125 305.265625 -400.703125 C 277.535156 -400.703125 252.65625 -396.210938 230.625 -387.234375 C 208.601562 -378.265625 191.171875 -366.4375 178.328125 -351.75 C 165.484375 -337.070312 155.695312 -321.269531 148.96875 -304.34375 C 142.238281 -287.414062 138.875 -270.1875 138.875 -252.65625 C 138.875 -214.3125 153.25 -179.945312 182 -149.5625 C 210.75 -119.1875 251.835938 -104 305.265625 -104 Z M 305.265625 -104 "/>
        </g>
      </g>
    </g>
    <g fill="#03e398" fill-opacity="1">
      <g transform="translate(857.241486, 760.864437)">
        <g>
          <path d="M 305.265625 -104 C 322.796875 -104 339.820312 -106.648438 356.34375 -111.953125 C 372.863281 -117.253906 385 -122.351562 392.75 -127.25 L 404.359375 -135.203125 L 453.3125 -37.3125 C 451.675781 -36.09375 449.429688 -34.460938 446.578125 -32.421875 C 443.722656 -30.378906 437.09375 -26.601562 426.6875 -21.09375 C 416.289062 -15.59375 405.175781 -10.800781 393.34375 -6.71875 C 381.519531 -2.644531 366.023438 1.019531 346.859375 4.28125 C 327.691406 7.539062 307.910156 9.171875 287.515625 9.171875 C 240.617188 9.171875 196.164062 -2.347656 154.15625 -25.390625 C 112.15625 -48.429688 78.304688 -80.140625 52.609375 -120.515625 C 26.910156 -160.890625 14.0625 -204.523438 14.0625 -251.421875 C 14.0625 -286.910156 21.609375 -320.96875 36.703125 -353.59375 C 51.796875 -386.21875 71.878906 -414.148438 96.953125 -437.390625 C 122.035156 -460.640625 151.296875 -479.195312 184.734375 -493.0625 C 218.179688 -506.9375 252.441406 -513.875 287.515625 -513.875 C 320.148438 -513.875 350.226562 -510 377.75 -502.25 C 405.28125 -494.5 424.753906 -486.75 436.171875 -479 L 453.3125 -467.375 L 404.359375 -369.5 C 401.503906 -371.945312 397.222656 -374.898438 391.515625 -378.359375 C 385.804688 -381.828125 374.382812 -386.414062 357.25 -392.125 C 340.125 -397.84375 322.796875 -400.703125 305.265625 -400.703125 C 277.535156 -400.703125 252.65625 -396.210938 230.625 -387.234375 C 208.601562 -378.265625 191.171875 -366.4375 178.328125 -351.75 C 165.484375 -337.070312 155.695312 -321.269531 148.96875 -304.34375 C 142.238281 -287.414062 138.875 -270.1875 138.875 -252.65625 C 138.875 -214.3125 153.25 -179.945312 182 -149.5625 C 210.75 -119.1875 251.835938 -104 305.265625 -104 Z M 305.265625 -104 "/>
        </g>
      </g>
    </g>
    <g fill="#03e398" fill-opacity="0.4">
      <g transform="translate(1306.481531, 787.901942)">
        <g>
          <path d="M 36.703125 -504.65625 L 217.15625 -504.65625 C 265.6875 -504.65625 305.242188 -491.707031 335.828125 -465.8125 C 366.410156 -439.914062 381.703125 -402.90625 381.703125 -354.78125 C 381.703125 -317.675781 372.421875 -286.582031 353.859375 -261.5 C 335.304688 -236.425781 310.128906 -218.789062 278.328125 -208.59375 L 452.046875 0 L 305.859375 0 L 151.703125 -199.421875 L 151.703125 0 L 36.703125 0 Z M 151.703125 -280.765625 L 165.15625 -280.765625 C 175.757812 -280.765625 184.726562 -280.96875 192.0625 -281.375 C 199.40625 -281.789062 207.765625 -283.21875 217.140625 -285.65625 C 226.523438 -288.101562 234.070312 -291.570312 239.78125 -296.0625 C 245.488281 -300.550781 250.378906 -307.078125 254.453125 -315.640625 C 258.535156 -324.203125 260.578125 -334.597656 260.578125 -346.828125 C 260.578125 -359.066406 258.535156 -369.46875 254.453125 -378.03125 C 250.378906 -386.59375 245.488281 -393.113281 239.78125 -397.59375 C 234.070312 -402.082031 226.523438 -405.550781 217.140625 -408 C 207.765625 -410.445312 199.40625 -411.875 192.0625 -412.28125 C 184.726562 -412.695312 175.757812 -412.90625 165.15625 -412.90625 L 151.703125 -412.90625 Z M 151.703125 -280.765625 "/>
        </g>
      </g>
    </g>
    <g fill="#03e398" fill-opacity="1">
      <g transform="translate(1279.447336, 760.867673)">
        <g>
          <path d="M 36.703125 -504.65625 L 217.15625 -504.65625 C 265.6875 -504.65625 305.242188 -491.707031 335.828125 -465.8125 C 366.410156 -439.914062 381.703125 -402.90625 381.703125 -354.78125 C 381.703125 -317.675781 372.421875 -286.582031 353.859375 -261.5 C 335.304688 -236.425781 310.128906 -218.789062 278.328125 -208.59375 L 452.046875 0 L 305.859375 0 L 151.703125 -199.421875 L 151.703125 0 L 36.703125 0 Z M 151.703125 -280.765625 L 165.15625 -280.765625 C 175.757812 -280.765625 184.726562 -280.96875 192.0625 -281.375 C 199.40625 -281.789062 207.765625 -283.21875 217.140625 -285.65625 C 226.523438 -288.101562 234.070312 -291.570312 239.78125 -296.0625 C 245.488281 -300.550781 250.378906 -307.078125 254.453125 -315.640625 C 258.535156 -324.203125 260.578125 -334.597656 260.578125 -346.828125 C 260.578125 -359.066406 258.535156 -369.46875 254.453125 -378.03125 C 250.378906 -386.59375 245.488281 -393.113281 239.78125 -397.59375 C 234.070312 -402.082031 226.523438 -405.550781 217.140625 -408 C 207.765625 -410.445312 199.40625 -411.875 192.0625 -412.28125 C 184.726562 -412.695312 175.757812 -412.90625 165.15625 -412.90625 L 151.703125 -412.90625 Z M 151.703125 -280.765625 "/>
        </g>
      </g>
    </g>
  </g>
</svg>