<svg xmlns="http://www.w3.org/2000/svg" viewBox="0 0 590 325.34"><defs><style>.cls-1{fill:#141414;}.cls-2,.cls-4{fill:red;}.cls-3{font-size:84px;fill:#fff;font-family:Bungee-Regular, Bungee;}.cls-4{fill-rule:evenodd;}</style></defs><g id="Camada_2" data-name="Camada 2"><g id="Camada_1-2" data-name="Camada 1"><g id="Camada_2-2" data-name="Camada 2"><rect class="cls-1" y="0.34" width="590" height="325"/><g id="Camada_1-2-2" data-name="Camada 1-2"><path class="cls-2" d="M447.93,127.2a49.83,49.83,0,0,0-70.82,70.12l.35.35a49.83,49.83,0,1,0,70.82-70.12ZM370,162.44a42.3,42.3,0,0,1,1.48-11.19c1.63,3.52,4,6.55,5.63,10.16,2.07,4.63,7.66,3.35,10.16,7.41,2.19,3.6-.15,8.17,1.49,11.94,1.2,2.73,4,3.33,5.95,5.33s1.94,4.79,2.24,7.43a66.27,66.27,0,0,0,1.66,9.17.11.11,0,0,0,0,.08A42.81,42.81,0,0,1,370,162.44Zm42.7,42.71a43.66,43.66,0,0,1-7.12-.59,10.7,10.7,0,0,1,.1-1.56,19,19,0,0,1,4.72-9.64C412.75,190.74,416,189,418,186a13.13,13.13,0,0,0,1.74-10.16c-1.19-5-8-6.66-11.62-9.38-2.11-1.55-4-4-6.74-4.16a18,18,0,0,1-3.59-.14c-1.17-.3-2.07-.92-3.3-.76-2.3.3-3.76,2.76-6.26,2.43-2.35-.32-4.76-3.06-5.3-5.3-.68-2.87,1.59-3.8,4-4.06a6.72,6.72,0,0,1,3.12.16c1.29.47,1.88,1.73,3.06,2.36,2.16,1.19,2.6-.71,2.26-2.63-.49-2.88-1.07-4.05,1.5-6,1.78-1.37,3.3-2.35,3-4.8-.17-1.45-1-2.1-.22-3.54a9.35,9.35,0,0,1,3.09-2.73c2.58-1.68,11-1.55,7.59-6.25-1-1.38-2.9-3.85-4.68-4.18-2.22-.42-3.2,2.06-4.76,3.15s-4.72,2.42-6.32.67c-2.16-2.36,1.43-3.12,2.23-4.77a3.21,3.21,0,0,0-.63-2.84c.8-.34,1.61-.63,2.44-.94a3.63,3.63,0,0,0,1.79.67c1.48.09,2.88-.71,4.18.31,1.45,1.11,2.5,2.5,4.38,2.86a3.7,3.7,0,0,0,4.27-2.64,8,8,0,0,0-.27-3.56,42.43,42.43,0,0,1,23.36,7.17,2,2,0,0,0-1.64.15c-1.35.63-3.26,2.23-3.42,3.81-.18,1.8,2.5,2.05,3.76,2.05,1.87,0,3.8-.84,3.19-3a6,6,0,0,0-1.21-2.5,41.79,41.79,0,0,1,4,3.12l-.06.07c-1.28,1.33-2.77,2.38-3.65,4a3.5,3.5,0,0,1-2.55,2,5,5,0,0,0-2.05.69c-1.61,1.25-.7,4.31.83,5.23a5.23,5.23,0,0,0,6.25-1c1.14-1.29,1.81-3.53,3.85-3.53a3.44,3.44,0,0,1,2.41,1c.84.88.68,1.7.86,2.79.32,1.95,2,.9,3.07-.09a41.52,41.52,0,0,1,2.06,4.18c-1.15,1.65-2.06,3.46-4.82,1.52-1.66-1.15-2.67-2.82-4.74-3.35a13,13,0,0,0-5.47.34c-2,.35-4.45.5-6,2.05s-2.28,3.47-3.87,5c-3.08,2.89-4.38,6-2.38,10.14A10.38,10.38,0,0,0,435,167.22c4.24-.28,8.65-2.74,8.53,3.42a15.34,15.34,0,0,0,1.08,5.72,22.23,22.23,0,0,1,.72,5.63,36,36,0,0,0,1.05,6.68,42.66,42.66,0,0,1-33.69,16.48Z"/><text class="cls-3" transform="translate(119.15 195.93)">CINE</text></g></g><path class="cls-4" d="M442,.34h5.11c15.42,1.11,23.24,29.39,39.55,25,5.89-1.61,10.78-7.68,16.93-7.77,14.72-.21,21.94,29.7,35.66,34.89,4.12,1.55,8.44,1.35,12.25-2.06,3.34-3,5.93-8,8.18-13.13,3.89-9,7.35-18.67,12-26.52,2.53-4.26,5.58-8.22,9.05-9.52a15.3,15.3,0,0,1,4.06-.84H590M.43,0C54.27,0,71,46.12,95.19,46.12,124.26,46.12,142.56,0,184,0c30.28,0,39.67,25.94,53.29,25.94C253.67,25.94,264,0,287.28,0"/><path class="cls-4" d="M148,325.34h-4.82C127.78,324.23,120,296,103.71,300.39c-5.87,1.6-10.76,7.67-16.89,7.76-14.68.21-21.88-29.7-35.58-34.88-4.1-1.56-8.41-1.35-12.21,2.06-3.34,3-5.92,7.95-8.17,13.13-3.87,9-7.33,18.67-12,26.51-2.52,4.26-5.56,8.22-9,9.52a15.33,15.33,0,0,1-4.05.85H0m588.76-.46c-53.71,0-70.36-46.12-94.53-46.12-29,0-47.26,46.12-88.61,46.12-30.21,0-39.58-25.94-53.17-25.94-16.31,0-26.58,25.94-49.85,25.94"/></g></g></svg>