<svg xmlns="http://www.w3.org/2000/svg" width="190" viewBox="0 0 189.69 189.62"><defs><style>.cls-1,.cls-3{fill:#ebecf3;}.cls-1{stroke:#ebecf3;stroke-miterlimit:3.02;stroke-width:1.81px;}.cls-2{fill:#f3a3a6;}.cls-4{fill:#2f2e43;}.cls-5{fill:#6c63ff;}.cls-6{fill:#dedfe0;}.cls-7{fill:#272223;opacity:0.1;isolation:isolate;}</style></defs><g id="Camada_2" data-name="Camada 2"><g id="Camada_1-2" data-name="Camada 1"><g id="Camada_2-2" data-name="Camada 2"><g id="Camada_1-2-2" data-name="Camada 1-2"><path class="cls-1" d="M94.84,188.71c-2.15,0-4.29-.07-6.36-.21s-4.28-.36-6.37-.64c-.92-.13-1.75-.25-2.55-.38-2.35-.38-4.75-.87-7.12-1.45l-2.37-.6-.8-.22c-1.15-.33-2.26-.66-3.3-1l-.22-.07c-.94-.3-1.92-.64-2.9-1l-2.59-1c-1.88-.74-3.77-1.57-5.61-2.44-.77-.36-1.57-.75-2.45-1.2l-.47-.25-.18-.09a93.92,93.92,0,1,1,84,1.28c-.68.33-1.4.66-2.28,1.06l-.09,0-.32.14c-.66.3-1.33.58-2,.85l-.3.12-.54.22c-2.24.91-4.5,1.72-6.72,2.42l-.53.17-.16,0c-1.84.57-3.78,1.1-5.73,1.58a94.35,94.35,0,0,1-22.08,2.61h0Zm0-187.58a93.51,93.51,0,0,0-43,176.53l.18.09.47.24c.87.45,1.67.84,2.43,1.21,1.83.86,3.7,1.68,5.58,2.41.9.36,1.74.68,2.56,1,1,.36,2,.69,2.89,1l.21.07c1,.34,2.14.67,3.28,1l.8.22c.75.21,1.54.42,2.35.61,2.36.57,4.74,1.06,7.08,1.44.79.13,1.62.25,2.53.37,2.08.29,4.21.5,6.34.64s4.18.21,6.31.21a93.62,93.62,0,0,0,21.93-2.61c2-.48,3.88-1,5.72-1.57l.15-.05a4.51,4.51,0,0,0,.52-.17c2.21-.69,4.46-1.5,6.69-2.41l.51-.21.37-.15c.64-.26,1.29-.54,1.93-.83L133,180l.08,0c.87-.4,1.6-.73,2.27-1.06a92.52,92.52,0,0,0,8.79-4.82,93.29,93.29,0,0,0,34.41-37.7A93.52,93.52,0,0,0,94.84,1.13Z"/><polygon class="cls-2" points="83.42 129.12 106.28 134.59 103.63 102.55 83.44 104.22 83.42 129.12"/><circle class="cls-2" cx="99.77" cy="89.47" r="22.26"/><path class="cls-3" d="M123.26,184l-.53.17-.16.05c-1.88.58-3.79,1.11-5.73,1.57a93.75,93.75,0,0,1-22,2.6q-3.19,0-6.33-.21c-2.14-.14-4.26-.36-6.36-.64-.85-.12-1.69-.24-2.53-.38q-3.6-.59-7.11-1.45c-.79-.18-1.57-.39-2.35-.6l-.81-.22c-1.1-.31-2.19-.64-3.28-1l-.22-.07c-1-.32-1.94-.65-2.9-1s-1.72-.64-2.57-1q-2.85-1.12-5.6-2.41l.71-3.2,2.45-11.08,5.31-24.08,5.37-24.32,14.11.39h0l.69,0,21.47.6,9.39.27Z"/><path class="cls-3" d="M144.28,174.34a89.91,89.91,0,0,1-8.82,4.85c-.75.36-1.51.71-2.28,1.06l-.4.18-2,.85h0l-.3.13-.53.21c-2.19.89-4.43,1.69-6.7,2.42l-.53.16L103,133.82l-1.33-3.4L98,120.93l-1.23-3.15,8.12.13,9.38.15a21.61,21.61,0,0,1,18,15.35l12,40.93Z"/><path class="cls-4" d="M84.16,99.64l2.37-.4c.19-4.23.61-8.95,3.76-11.76C92,85.94,94.56,85,95.42,82.87c.72-1.8,0-4,1-5.66s3.41-2,5.43-2.18a32,32,0,0,1,9.53.37c3.1.75,6.09,2.62,7.41,5.52a16.35,16.35,0,0,1,.88,2.81c.79,3.23,2,9.36,2,9.36s.23-1.27.9-3.75c1.37-2,3-3.75,3.84-6a12.8,12.8,0,0,0-.41-8.43A21.44,21.44,0,0,0,112.7,61.57c-6.21-2-12.07-3.1-16.73,1.49a24.34,24.34,0,0,1-2.65,2.53c-1.85,1.32-4.2,1.65-6.27,2.56A18,18,0,0,0,77.21,80c-1,4.94-.5,10.06.05,15.07.48,4.33,2.53,9.16,6.13,11.6l.45-6.64.32-.38Z"/><path class="cls-3" d="M96.48,120.45l-.22.35-6.07,9.94-9,14.73-1.83,3-6.66,10.89a76.68,76.68,0,0,1-5.8,6.94h0c-1.33,1.41-2.84,2.93-4.53,4.46a.08.08,0,0,1,0,0,64.88,64.88,0,0,1-6.82,5.45c-1,.71-2.07,1.38-3.15,2-.22-.1-.44-.22-.65-.33a94.25,94.25,0,0,1-27.16-21.23c8-12.73,23.74-27,33.9-35.5a23.7,23.7,0,0,1,20.72-4.88l3.59.85.69.17,13.06,3.12Z"/><path class="cls-5" d="M124.83,117.38c-3.92-1.41-14.27-1.41-18.92.16a2,2,0,0,0-1.29,2.16l.19,1.11a4.11,4.11,0,0,1-1.18-.35,6.36,6.36,0,0,0-5.49-.09,5.73,5.73,0,0,0-3,3.89,6.74,6.74,0,0,0,1.38,6.24l3,2.87a53,53,0,0,0,8.32,6.37l.06,0-1.08-6.54a2.19,2.19,0,0,1-3,.82l-.06,0c-2.67-1.65-7-5-6.49-8.7.37-2.61,1.82-3.17,3.22-3a4.42,4.42,0,0,1,3.59,2.53,1.79,1.79,0,0,0,.74.8l.79.43,2.3,13.85a2,2,0,0,0,1.06,1.44c5.41,2.65,11.25,1.27,13.27.65a1.92,1.92,0,0,0,1.1-.86l.43-.72a2,2,0,0,0,.28-.81l2-20.16a2,2,0,0,0-1.28-2Z"/><ellipse class="cls-6" cx="115.46" cy="118.46" rx="9.09" ry="3.02"/><path id="uuid-add59a10-2c6d-45b5-a06d-26741c0f8cf5-65" class="cls-2" d="M97.31,135.63c4.93-3.77,6.88-9.45,4.36-12.67s-8.59-2.79-13.51,1a15,15,0,0,0-4.64,5.68L62.83,145.89l8.22,9.83,19.53-17.07a15.24,15.24,0,0,0,6.73-3Z"/><polygon class="cls-3" points="83.61 149.76 75.43 135.37 45.65 149.38 62.31 170.8 83.61 149.76"/><path class="cls-7" d="M65.77,139.91s-21.71,15.9-20.91,15.81,11.51-6,11.51-6Z"/></g></g></g></g></svg>